<svg xmlns="http://www.w3.org/2000/svg" viewBox="0 0 20 20"><path fill="#FFF" fill-rule="evenodd" d="M7.5 14.7H5.2V8h2.3v6.8zM6.3 7c-.8 0-1.2-.5-1.2-1.2s.5-1.2 1.2-1.2c.8 0 1.3.5 1.3 1.2S7.1 7 6.3 7zm9.3 7.7h-2.3v-3.6c0-1-.3-1.6-1.1-1.6-.6 0-1 .5-1.2.9v4.3H8.7V8H11v1c.3-.5.8-1.2 2-1.2 1.5 0 2.6 1 2.6 3.1v4zM3.3 1.7c-.9 0-1.6.7-1.6 1.6v13.4c0 .9.7 1.6 1.6 1.6h13.4c.9 0 1.6-.7 1.6-1.6V3.3c0-.9-.7-1.6-1.6-1.6H3.3zm0-1.7h13.4C18.5 0 20 1.5 20 3.3v13.4c0 1.8-1.5 3.3-3.3 3.3H3.3A3.3 3.3 0 0 1 0 16.7V3.3C0 1.5 1.5 0 3.3 0z"/></svg>
