<svg xmlns="http://www.w3.org/2000/svg" viewBox="0 0 20 20"><path fill="#FFF" fill-rule="nonzero" d="M3.3 1.7c-.9 0-1.6.7-1.6 1.6v13.4c0 .9.7 1.6 1.6 1.6h13.4c.9 0 1.6-.7 1.6-1.6V3.3c0-.9-.7-1.6-1.6-1.6H3.3zm0-1.7h13.4C18.5 0 20 1.5 20 3.3v13.4c0 1.8-1.5 3.3-3.3 3.3H3.3A3.3 3.3 0 0 1 0 16.7V3.3C0 1.5 1.5 0 3.3 0zm8.2 5.1c-1 .4-1.7 1.4-1.7 2.6V8h-.4a6.8 6.8 0 0 1-4-2.1L5 5.4l-.2.4c-.3 1 0 2 .5 2.7.4.3.3.4-.3.2l-.4-.1.3 1.1c.3.5.7 1 1.2 1.2l.4.2h-.5c-.5 0-.5 0-.4.2.1.6.8 1.2 1.5 1.4l.6.2-.5.3c-.7.4-1.4.6-2.2.6l-.7.1 1.6.8c1.8.6 4 .3 5.5-.7a7.6 7.6 0 0 0 3.4-6c0-.4 0-.5.5-1l.6-.7c0-.1 0-.1-.4 0-.7.3-.8.3-.4-.1l.5-1-.2.1-.8.3-.4.2-.4-.3L13 5h-1.5z"/></svg>
